<svg width="50" height="48" viewBox="0 0 50 48" fill="none" xmlns="http://www.w3.org/2000/svg">
<path d="M48.6468 23.7544C48.6468 36.4103 38.0479 46.7105 24.9227 46.7105C11.7975 46.7105 1.19861 36.4103 1.19861 23.7544C1.19861 11.0985 11.7975 0.79834 24.9227 0.79834C38.0479 0.79834 48.6468 11.0985 48.6468 23.7544Z" stroke="#344D9C" stroke-width="1.5"/>
<mask id="path-2-inside-1_27_9" fill="white">
<path d="M21.8963 30.6683C28.0536 30.6683 31.4208 25.7285 31.4208 21.4451C31.4208 21.3048 31.4178 21.1651 31.4113 21.0262C32.0648 20.5686 32.6329 19.9975 33.0811 19.3475C32.4813 19.6058 31.8357 19.7794 31.1587 19.858C31.8498 19.4565 32.3804 18.8217 32.6307 18.0649C31.9839 18.4363 31.2676 18.706 30.5051 18.8517C29.8942 18.2217 29.0244 17.8276 28.0615 17.8276C26.213 17.8276 24.7138 19.2793 24.7138 21.0688C24.7138 21.3233 24.7432 21.5706 24.8006 21.8079C22.0184 21.6724 19.5513 20.3826 17.9004 18.4211C17.613 18.9001 17.4472 19.4566 17.4472 20.0505C17.4472 21.175 18.0382 22.168 18.9368 22.7487C18.3876 22.7323 17.8718 22.5863 17.4208 22.3433C17.4203 22.357 17.4203 22.3702 17.4203 22.3847C17.4203 23.9546 18.5741 25.2654 20.106 25.5624C19.8247 25.6366 19.5286 25.6765 19.2233 25.6765C19.008 25.6765 18.798 25.656 18.5941 25.618C19.0202 26.906 20.2561 27.8432 21.7213 27.8695C20.5755 28.7391 19.1322 29.2571 17.5636 29.2571C17.2937 29.2571 17.027 29.2422 16.765 29.2122C18.2465 30.1318 20.0058 30.6684 21.8964 30.6684"/>
</mask>
<path d="M21.8963 30.6683C28.0536 30.6683 31.4208 25.7285 31.4208 21.4451C31.4208 21.3048 31.4178 21.1651 31.4113 21.0262C32.0648 20.5686 32.6329 19.9975 33.0811 19.3475C32.4813 19.6058 31.8357 19.7794 31.1587 19.858C31.8498 19.4565 32.3804 18.8217 32.6307 18.0649C31.9839 18.4363 31.2676 18.706 30.5051 18.8517C29.8942 18.2217 29.0244 17.8276 28.0615 17.8276C26.213 17.8276 24.7138 19.2793 24.7138 21.0688C24.7138 21.3233 24.7432 21.5706 24.8006 21.8079C22.0184 21.6724 19.5513 20.3826 17.9004 18.4211C17.613 18.9001 17.4472 19.4566 17.4472 20.0505C17.4472 21.175 18.0382 22.168 18.9368 22.7487C18.3876 22.7323 17.8718 22.5863 17.4208 22.3433C17.4203 22.357 17.4203 22.3702 17.4203 22.3847C17.4203 23.9546 18.5741 25.2654 20.106 25.5624C19.8247 25.6366 19.5286 25.6765 19.2233 25.6765C19.008 25.6765 18.798 25.656 18.5941 25.618C19.0202 26.906 20.2561 27.8432 21.7213 27.8695C20.5755 28.7391 19.1322 29.2571 17.5636 29.2571C17.2937 29.2571 17.027 29.2422 16.765 29.2122C18.2465 30.1318 20.0058 30.6684 21.8964 30.6684" fill="#344D9C"/>
<path d="M31.4113 21.0262L30.9477 20.364L30.5831 20.6193L30.6039 21.0639L31.4113 21.0262ZM33.0811 19.3475L33.7465 19.8064L35.3408 17.4944L32.7614 18.6051L33.0811 19.3475ZM31.1587 19.858L30.7527 19.1591L31.2519 20.6609L31.1587 19.858ZM32.6307 18.0649L33.3981 18.3187L34.062 16.3112L32.2282 17.364L32.6307 18.0649ZM30.5051 18.8517L29.9247 19.4144L30.2284 19.7276L30.6568 19.6457L30.5051 18.8517ZM24.8006 21.8079L24.7612 22.6153L25.8401 22.6679L25.5862 21.618L24.8006 21.8079ZM17.9004 18.4211L18.5188 17.9006L17.7898 17.0344L17.2073 18.0052L17.9004 18.4211ZM18.9368 22.7487L18.9128 23.5566L21.8096 23.6428L19.3755 22.0698L18.9368 22.7487ZM17.4208 22.3433L17.8042 21.6318L16.6605 21.0155L16.613 22.3138L17.4208 22.3433ZM20.106 25.5624L20.3119 26.3441L20.2599 24.7689L20.106 25.5624ZM18.5941 25.618L18.742 24.8234L17.3969 24.5729L17.8267 25.8719L18.5941 25.618ZM21.7213 27.8695L22.2099 28.5134L24.068 27.1032L21.7358 27.0614L21.7213 27.8695ZM16.765 29.2122L16.8568 28.4091L16.3387 29.899L16.765 29.2122ZM21.8963 31.4766C28.5699 31.4766 32.2291 26.1017 32.2291 21.4451H30.6125C30.6125 25.3554 27.5373 29.86 21.8963 29.86V31.4766ZM32.2291 21.4451C32.2291 21.2934 32.2258 21.141 32.2187 20.9885L30.6039 21.0639C30.6097 21.1892 30.6125 21.3163 30.6125 21.4451H32.2291ZM31.8749 21.6883C32.6064 21.1761 33.2431 20.5365 33.7465 19.8064L32.4157 18.8887C32.0227 19.4586 31.5232 19.961 30.9477 20.364L31.8749 21.6883ZM32.7614 18.6051C32.2345 18.832 31.6653 18.9855 31.0656 19.0551L31.2519 20.6609C32.0062 20.5734 32.7281 20.3796 33.4008 20.0899L32.7614 18.6051ZM31.5648 20.5569C32.4188 20.0607 33.0831 19.2714 33.3981 18.3187L31.8633 17.8112C31.6778 18.372 31.2808 18.8523 30.7527 19.1591L31.5648 20.5569ZM32.2282 17.364C31.6584 17.6911 31.0267 17.9291 30.3534 18.0578L30.6568 19.6457C31.5085 19.4829 32.3094 19.1814 33.0331 18.7659L32.2282 17.364ZM31.0854 18.2891C30.3256 17.5053 29.2478 17.0193 28.0615 17.0193V18.6359C28.8011 18.6359 29.4629 18.938 29.9247 19.4144L31.0854 18.2891ZM28.0615 17.0193C25.7914 17.0193 23.9055 18.8085 23.9055 21.0688H25.5221C25.5221 19.7501 26.6346 18.6359 28.0615 18.6359V17.0193ZM23.9055 21.0688C23.9055 21.3858 23.9422 21.697 24.0149 21.9979L25.5862 21.618C25.5442 21.4443 25.5221 21.2607 25.5221 21.0688H23.9055ZM24.8399 21.0006C22.2859 20.8762 20.0273 19.6929 18.5188 17.9006L17.282 18.9416C19.0752 21.0722 21.7509 22.4686 24.7612 22.6153L24.8399 21.0006ZM17.2073 18.0052C16.8479 18.6042 16.6389 19.3037 16.6389 20.0505H18.2555C18.2555 19.6095 18.3782 19.1959 18.5935 18.837L17.2073 18.0052ZM16.6389 20.0505C16.6389 21.4672 17.3845 22.7079 18.4981 23.4276L19.3755 22.0698C18.692 21.628 18.2555 20.8828 18.2555 20.0505H16.6389ZM18.9608 21.9407C18.5406 21.9282 18.1474 21.8167 17.8042 21.6318L17.0374 23.0549C17.5961 23.356 18.2347 23.5365 18.9128 23.5566L18.9608 21.9407ZM16.613 22.3138C16.6119 22.3446 16.612 22.3727 16.612 22.3847H18.2286C18.2286 22.3767 18.2286 22.3736 18.2286 22.3711C18.2286 22.3692 18.2286 22.3702 18.2285 22.3729L16.613 22.3138ZM16.612 22.3847C16.612 24.3666 18.0652 25.9901 19.9522 26.356L20.2599 24.7689C19.083 24.5407 18.2286 23.5427 18.2286 22.3847H16.612ZM19.9002 24.7808C19.6848 24.8375 19.458 24.8682 19.2233 24.8682V26.4848C19.5993 26.4848 19.9645 26.4356 20.3119 26.3441L19.9002 24.7808ZM19.2233 24.8682C19.0595 24.8682 18.8991 24.8526 18.742 24.8234L18.4461 26.4127C18.697 26.4594 18.9564 26.4848 19.2233 26.4848V24.8682ZM17.8267 25.8719C18.3621 27.4901 19.903 28.6453 21.7068 28.6777L21.7358 27.0614C20.6092 27.0411 19.6784 26.3219 19.3615 25.3641L17.8267 25.8719ZM21.2326 27.2257C20.2244 27.9909 18.9519 28.4488 17.5636 28.4488V30.0654C19.3124 30.0654 20.9266 29.4874 22.2099 28.5134L21.2326 27.2257ZM17.5636 28.4488C17.3236 28.4488 17.0876 28.4355 16.8568 28.4091L16.6732 30.0153C16.9665 30.0488 17.2639 30.0654 17.5636 30.0654V28.4488ZM16.3387 29.899C17.9446 30.8957 19.8509 31.4767 21.8964 31.4767V29.8601C20.1606 29.8601 18.5485 29.3678 17.1913 28.5254L16.3387 29.899Z" fill="#344D9C" mask="url(#path-2-inside-1_27_9)"/>
</svg>
