<svg width="50" height="48" viewBox="0 0 50 48" fill="none" xmlns="http://www.w3.org/2000/svg">
<path d="M49.0954 23.7061C49.0954 36.362 38.4965 46.6621 25.3713 46.6621C12.2461 46.6621 1.64722 36.362 1.64722 23.7061C1.64722 11.0501 12.2461 0.75 25.3713 0.75C38.4965 0.75 49.0954 11.0501 49.0954 23.7061Z" stroke="#344D9C" stroke-width="1.5"/>
<path d="M20.4737 17.6335C20.4737 18.3438 19.8746 18.9466 19.1018 18.9466C18.3289 18.9466 17.7299 18.3438 17.7299 17.6335C17.7299 16.9231 18.3289 16.3203 19.1018 16.3203C19.8746 16.3203 20.4737 16.9231 20.4737 17.6335Z" fill="#00476F" stroke="#344D9C"/>
<path d="M32.305 25.3645V30.3811H30.0788V25.9885V25.9777C30.0788 25.4186 30.0788 24.6536 29.8244 24.0293C29.6902 23.6999 29.4775 23.387 29.1424 23.1604C28.8075 22.9338 28.392 22.8218 27.9011 22.8218C27.4184 22.8218 27.002 22.9133 26.6533 23.1004C26.3013 23.2895 26.0468 23.5609 25.8686 23.8745C25.5257 24.4782 25.4659 25.2396 25.4659 25.9057V30.3802H23.2414V21.3209H25.3367V22.1965V22.6965H25.8367H25.8803H26.1773L26.3194 22.4357C26.6635 21.8042 27.5489 21.0723 28.9328 21.0723C30.4514 21.0723 31.2345 21.5466 31.676 22.225C32.1501 22.9533 32.305 24.0216 32.305 25.3645ZM17.9867 21.3209H20.2163V30.3802H17.9867V21.3209Z" fill="#344D9C" stroke="#344D9C"/>
</svg>
