<svg width="30" height="30" viewBox="0 0 30 30" fill="none" xmlns="http://www.w3.org/2000/svg">
<g clip-path="url(#clip0_214_97)">
<path d="M30 15C30 23.2842 23.2842 30 15 30C6.71578 30 0 23.2842 0 15C0 15.0035 15 0.00169922 15 0C23.2842 0 30 6.71578 30 15Z" fill="#012169"/>
<path d="M15 0C14.9992 0 14.9983 0.001 14.9975 0.001L15 0Z" fill="#F0F0F0"/>
<path d="M14.9598 15H15C15 14.9864 15 14.9734 15 14.9599C14.9866 14.9733 14.9733 14.9866 14.9598 15Z" fill="#F0F0F0"/>
<path d="M15 7.82613C15 5.18678 15 3.45727 15 5.81741e-05H14.9975C6.71437 0.00140583 0 6.71654 0 15H7.82607V10.593L12.233 15H14.9599C14.9733 14.9866 14.9867 14.9733 15.0001 14.9599C15.0001 13.9493 15.0001 13.0476 15.0001 12.2331L10.593 7.82613H15Z" fill="#F0F0F0"/>
<path d="M7.58875 1.9565C5.24271 3.29238 3.29236 5.24273 1.95648 7.58877V15H5.86955V5.86963V5.86957H15C15 4.63541 15 3.45967 15 1.9565H7.58875Z" fill="#D80027"/>
<path d="M15 13.1554L9.6707 7.82619H7.82611C7.82611 7.82613 7.82611 7.82619 7.82611 7.82619L14.9999 15H15C15 15 15 13.7282 15 13.1554Z" fill="#D80027"/>
<path d="M9.04661 17.6087L9.86985 19.3301L11.7289 18.9004L10.8964 20.6173L12.3913 21.8029L10.53 22.2224L10.5352 24.1304L9.04661 22.9367L7.5581 24.1304L7.56331 22.2224L5.7019 21.8029L7.19692 20.6173L6.36431 18.9004L8.22343 19.3301L9.04661 17.6087Z" fill="#F0F0F0"/>
<path d="M22.4581 20.8696L22.8697 21.7303L23.7992 21.5154L23.3829 22.3738L24.1305 22.9666L23.1998 23.1764L23.2023 24.1304L22.4581 23.5335L21.7138 24.1304L21.7164 23.1764L20.7858 22.9666L21.5332 22.3738L21.117 21.5154L22.0465 21.7303L22.4581 20.8696Z" fill="#F0F0F0"/>
<path d="M18.6289 11.7391L19.0405 12.5999L19.97 12.385L19.5538 13.2434L20.3013 13.8362L19.3706 14.046L19.3731 15L18.6289 14.4031L17.8847 15L17.8872 14.046L16.9565 13.8362L17.704 13.2434L17.2878 12.385L18.2173 12.5999L18.6289 11.7391Z" fill="#F0F0F0"/>
<path d="M22.4581 6.52172L22.8697 7.38246L23.7992 7.1676L23.383 8.02605L24.1304 8.61879L23.1998 8.82861L23.2023 9.78264L22.4581 9.18574L21.7138 9.78264L21.7164 8.82861L20.7858 8.61879L21.5332 8.02605L21.117 7.1676L22.0465 7.38246L22.4581 6.52172Z" fill="#F0F0F0"/>
<path d="M25.8028 10.4348L26.2144 11.2955L27.1439 11.0806L26.7277 11.9391L27.4751 12.5319L26.5444 12.7417L26.547 13.6956L25.8028 13.0988L25.0586 13.6956L25.0611 12.7417L24.1304 12.5319L24.8779 11.9391L24.4617 11.0806L25.3911 11.2955L25.8028 10.4348Z" fill="#F0F0F0"/>
<path d="M23.4112 15L23.7349 15.9964H24.7827L23.935 16.6123L24.2589 17.6087L23.4112 16.9929L22.5636 17.6087L22.8873 16.6123L22.0397 15.9964H23.0874L23.4112 15Z" fill="#F0F0F0"/>
</g>
<defs>
<clipPath id="clip0_214_97">
<rect width="30" height="30" fill="white"/>
</clipPath>
</defs>
</svg>
