<svg width="50" height="48" viewBox="0 0 50 48" fill="none" xmlns="http://www.w3.org/2000/svg">
<path d="M48.5832 23.7061C48.5832 36.362 37.9843 46.6621 24.8591 46.6621C11.7339 46.6621 1.13501 36.362 1.13501 23.7061C1.13501 11.0501 11.7339 0.75 24.8591 0.75C37.9843 0.75 48.5832 11.0501 48.5832 23.7061Z" stroke="#344D9C" stroke-width="1.5"/>
<path d="M26.6785 27.2305L26.6829 27.227C26.916 27.4368 27.0754 27.7059 27.144 27.9982L27.1479 28.0146L27.1528 28.0307C27.1581 28.048 27.1633 28.0629 27.1674 28.0742L27.1743 28.0926L27.1734 28.0928C27.2383 28.3307 27.2688 28.5757 27.2641 28.8211L27.2641 28.8211V28.8305C27.2641 29.0411 27.2624 29.776 27.2607 30.4593L27.2584 31.3718L27.2577 31.6631L27.2575 31.7438L27.2574 31.765L27.2574 31.7704L27.2574 31.7717L27.2574 31.7721V31.7722L27.7574 31.7735L27.2574 31.7722V31.7735C27.2574 31.8452 27.2278 31.9187 27.1676 31.9763C27.1067 32.0347 27.0195 32.0711 26.9243 32.0711H22.9973C22.9021 32.0711 22.815 32.0347 22.754 31.9763C22.6938 31.9187 22.6643 31.8452 22.6643 31.7735H22.6643L22.6642 31.7657L22.6609 31.552L22.6609 31.552L22.6608 31.5491L22.6592 31.471L22.648 30.9495L22.1275 30.9826C20.9502 31.0576 20.2117 30.8045 19.7453 30.4871C19.2759 30.1677 19.0329 29.7497 18.9075 29.4124L18.9013 29.3956L18.8938 29.3792C18.6833 28.9175 18.3857 28.4985 18.0171 28.1429L17.9637 28.0914L17.8977 28.0576C17.7828 27.9988 17.5946 27.8866 17.4422 27.7344C17.2884 27.5809 17.2174 27.435 17.2178 27.2967C17.2182 27.2254 17.248 27.1524 17.3081 27.0951C17.3691 27.0371 17.456 27.0009 17.5508 27.0009H17.5533C17.6252 27.0015 17.6934 27.0228 17.749 27.0597C17.8047 27.0967 17.8438 27.1465 17.8651 27.2L17.9167 27.3297L18.028 27.414C18.0837 27.4561 18.1423 27.4943 18.2033 27.5282C18.7974 27.9691 19.2559 28.5514 19.5345 29.2139C19.7525 29.7884 20.2108 30.1045 20.705 30.2581C21.187 30.4079 21.7333 30.4157 22.2269 30.3735L22.6843 30.3344V29.8753V28.8305H22.6844L22.6842 28.821C22.6795 28.5757 22.71 28.3307 22.7749 28.0929L22.7794 28.0764L22.7828 28.0597C22.8464 27.7432 23.0142 27.4507 23.2665 27.2261L24.1072 26.4776L22.9882 26.3556C21.8433 26.2307 20.7497 25.9732 19.9164 25.3715C19.1103 24.7895 18.4913 23.844 18.3676 22.2051L18.367 22.1972L18.3662 22.1894C18.3441 21.9833 18.3339 21.7763 18.3357 21.5692L18.3359 21.5692L18.3356 21.5551C18.3194 20.7232 18.6067 19.909 19.1527 19.2532C19.2175 19.1757 19.2849 19.097 19.3497 19.0281L19.5688 18.795L19.4489 18.4983C19.3802 18.3282 19.3288 18.1523 19.2953 17.9732C19.2134 17.4189 19.2649 16.855 19.4449 16.3238C19.5197 16.3289 19.6142 16.3404 19.7292 16.3635C20.1545 16.449 20.8644 16.6943 21.8945 17.3659L22.0803 17.4869L22.2948 17.4306C23.1647 17.2018 24.0632 17.0866 24.9658 17.0881L24.9678 17.0881C25.8673 17.0861 26.7629 17.2013 27.6296 17.4304L27.8428 17.4868L28.0282 17.3673C29.059 16.703 29.7702 16.4567 30.1976 16.3691C30.3122 16.3456 30.4066 16.3335 30.4817 16.3277C30.6634 16.8646 30.7146 17.4347 30.6301 17.9948C30.5966 18.1679 30.5472 18.338 30.4825 18.5032L30.3648 18.8033L30.5896 19.0344C30.6259 19.0716 30.6609 19.1098 30.6948 19.1489L30.7774 19.2501C31.3173 19.9109 31.6022 20.7253 31.5893 21.5579L31.5892 21.5579L31.5893 21.57C31.5911 21.7771 31.5809 21.9841 31.5588 22.1902L31.558 22.198L31.5574 22.2058C31.4337 23.8373 30.8184 24.7834 30.0155 25.3674C29.1863 25.9705 28.0968 26.2317 26.9534 26.3564L25.887 26.4726L26.6619 27.2146L26.6785 27.2305ZM27.3097 28.0556L27.1749 28.0924C27.1748 28.0919 27.1747 28.0914 27.1745 28.0909L27.314 28.0534L27.3097 28.0556Z" fill="#344D9C" stroke="#344D9C"/>
</svg>
