<svg width="49" height="48" viewBox="0 0 49 48" fill="none" xmlns="http://www.w3.org/2000/svg">
<path d="M48.1982 23.7544C48.1982 36.4103 37.5993 46.7105 24.4741 46.7105C11.3489 46.7105 0.75 36.4103 0.75 23.7544C0.75 11.0985 11.3489 0.79834 24.4741 0.79834C37.5993 0.79834 48.1982 11.0985 48.1982 23.7544Z" stroke="#344D9C" stroke-width="1.5"/>
<mask id="path-2-inside-1_27_6" fill="white">
<path d="M26.8773 18.6402H28.5529V15.9703C28.2638 15.9339 27.2697 15.8521 26.1118 15.8521C23.696 15.8521 22.041 17.2423 22.041 19.7974V22.149H19.3751V25.1337H22.041V32.6438H25.3096V25.1344H27.8677L28.2738 22.1497H25.3088V20.0934C25.3096 19.2307 25.5635 18.6402 26.8773 18.6402Z"/>
</mask>
<path d="M26.8773 18.6402H28.5529V15.9703C28.2638 15.9339 27.2697 15.8521 26.1118 15.8521C23.696 15.8521 22.041 17.2423 22.041 19.7974V22.149H19.3751V25.1337H22.041V32.6438H25.3096V25.1344H27.8677L28.2738 22.1497H25.3088V20.0934C25.3096 19.2307 25.5635 18.6402 26.8773 18.6402Z" fill="#344D9C"/>
<path d="M28.5529 18.6402V35.8924H45.8052V18.6402H28.5529ZM28.5529 15.9703H45.8052V0.753257L30.7072 -1.14692L28.5529 15.9703ZM22.041 22.149V39.4012H39.2933V22.149H22.041ZM19.3751 22.149V4.89673H2.12287V22.149H19.3751ZM19.3751 25.1337H2.12287V42.386H19.3751V25.1337ZM22.041 25.1337H39.2933V7.88147H22.041V25.1337ZM22.041 32.6438H4.7888V49.8961H22.041V32.6438ZM25.3096 32.6438V49.8961H42.5618V32.6438H25.3096ZM25.3096 25.1344V7.88217H8.05735V25.1344H25.3096ZM27.8677 25.1344V42.3867H42.9317L44.9625 27.4602L27.8677 25.1344ZM28.2738 22.1497L45.3685 24.4755L48.0322 4.89743H28.2738V22.1497ZM25.3088 22.1497H8.05659V39.4019H25.3088V22.1497ZM25.3088 20.0934L8.05659 20.0781L8.05659 20.0857V20.0934H25.3088ZM26.8773 35.8924H28.5529V1.38794H26.8773V35.8924ZM45.8052 18.6402V15.9703H11.3007V18.6402H45.8052ZM30.7072 -1.14692C29.6062 -1.2855 27.8845 -1.4002 26.1118 -1.4002V33.1043C26.2003 33.1043 26.2966 33.1059 26.3955 33.109C26.4941 33.1121 26.583 33.1164 26.6549 33.1206C26.7287 33.1249 26.7681 33.1282 26.7652 33.1279C26.7635 33.1278 26.7389 33.1257 26.6931 33.1211C26.6697 33.1188 26.6349 33.1152 26.5903 33.1102C26.5475 33.1055 26.4818 33.098 26.3986 33.0875L30.7072 -1.14692ZM26.1118 -1.4002C21.6791 -1.4002 16.0646 -0.0935926 11.4089 4.24498C6.57407 8.75036 4.7888 14.6476 4.7888 19.7974H39.2933C39.2933 22.3921 38.3355 26.3166 34.9321 29.4881C31.7078 32.4928 28.1287 33.1043 26.1118 33.1043V-1.4002ZM4.7888 19.7974V22.149H39.2933V19.7974H4.7888ZM22.041 4.89673H19.3751V39.4012H22.041V4.89673ZM2.12287 22.149V25.1337H36.6274V22.149H2.12287ZM19.3751 42.386H22.041V7.88147H19.3751V42.386ZM4.7888 25.1337V32.6438H39.2933V25.1337H4.7888ZM22.041 49.8961H25.3096V15.3916H22.041V49.8961ZM42.5618 32.6438V25.1344H8.05735V32.6438H42.5618ZM25.3096 42.3867H27.8677V7.88217H25.3096V42.3867ZM44.9625 27.4602L45.3685 24.4755L11.179 19.8239L10.7729 22.8086L44.9625 27.4602ZM28.2738 4.89743H25.3088V39.4019H28.2738V4.89743ZM42.5611 22.1497V20.0934H8.05659V22.1497H42.5611ZM42.5611 20.1087C42.5607 20.5552 42.6948 25.7955 38.4771 30.5254C33.9114 35.6454 28.2645 35.8924 26.8773 35.8924V1.38794C24.1763 1.38794 17.7455 1.93021 12.7243 7.56118C8.05098 12.802 8.05775 18.7689 8.05659 20.0781L42.5611 20.1087Z" fill="#344D9C" mask="url(#path-2-inside-1_27_6)"/>
</svg>
