<svg width="30" height="30" viewBox="0 0 30 30" fill="none" xmlns="http://www.w3.org/2000/svg">
<g clip-path="url(#clip0_214_43)">
<path d="M15 30C23.2843 30 30 23.2843 30 15C30 6.71573 23.2843 0 15 0C6.71573 0 0 6.71573 0 15C0 23.2843 6.71573 30 15 30Z" fill="#F0F0F0"/>
<path d="M0 15.0001C0 6.71578 6.71578 0 15 0C23.2842 0 30 6.71578 30 15.0001" fill="#D80027"/>
<path d="M9.13045 7.82602C9.13045 5.64059 10.6664 3.81493 12.7174 3.36698C12.4022 3.29819 12.0751 3.26086 11.7391 3.26086C9.21776 3.26086 7.17389 5.30473 7.17389 7.82608C7.17389 10.3474 9.21776 12.3913 11.7391 12.3913C12.075 12.3913 12.4021 12.354 12.7174 12.2851C10.6664 11.8372 9.13045 10.0115 9.13045 7.82602V7.82602Z" fill="#F0F0F0"/>
<path d="M15 3.58694L15.3238 4.58333H16.3716L15.5239 5.19921L15.8477 6.1956L15 5.57984L14.1524 6.1956L14.4762 5.19921L13.6286 4.58333H14.6763L15 3.58694Z" fill="#F0F0F0"/>
<path d="M12.4585 5.54344L12.7823 6.53989H13.83L12.9824 7.15571L13.3062 8.15209L12.4585 7.53633L11.6108 8.15209L11.9347 7.15571L11.087 6.53989H12.1347L12.4585 5.54344Z" fill="#F0F0F0"/>
<path d="M17.5416 5.54344L17.8655 6.53989H18.9131L18.0654 7.15571L18.3893 8.15209L17.5416 7.53633L16.694 8.15209L17.0178 7.15571L16.1702 6.53989H17.2178L17.5416 5.54344Z" fill="#F0F0F0"/>
<path d="M16.5633 8.47823L16.8871 9.47467H17.9348L17.0872 10.0905L17.411 11.0869L16.5633 10.4711L15.7157 11.0869L16.0395 10.0905L15.1919 9.47467H16.2395L16.5633 8.47823Z" fill="#F0F0F0"/>
<path d="M13.4368 8.47823L13.7605 9.47467H14.8083L13.9606 10.0905L14.2844 11.0869L13.4368 10.4711L12.5891 11.0869L12.9129 10.0905L12.0652 9.47467H13.113L13.4368 8.47823Z" fill="#F0F0F0"/>
</g>
<defs>
<clipPath id="clip0_214_43">
<rect width="30" height="30" fill="white"/>
</clipPath>
</defs>
</svg>
